<svg width="24" height="24" viewBox="0 0 24 24" fill="none" xmlns="http://www.w3.org/2000/svg">
<path d="M18.2222 4H5.77778C4.79556 4 4 4.79556 4 5.77778V18.2222C4 19.2044 4.79556 20 5.77778 20H18.2222C19.2044 20 20 19.2044 20 18.2222V5.77778C20 4.79556 19.2044 4 18.2222 4ZM9.33333 16.4444H7.09067V10.2222H9.33333V16.4444ZM8.17244 9.08178C7.48711 9.08178 7.02933 8.62489 7.02933 8.01511C7.02933 7.40533 7.48622 6.94844 8.248 6.94844C8.93333 6.94844 9.39111 7.40533 9.39111 8.01511C9.39111 8.62489 8.93422 9.08178 8.17244 9.08178ZM17.3333 16.4444H15.1627V13.0436C15.1627 12.1031 14.584 11.8862 14.3671 11.8862C14.1502 11.8862 13.4267 12.0311 13.4267 13.0436C13.4267 13.1884 13.4267 16.4444 13.4267 16.4444H11.184V10.2222H13.4267V11.0907C13.7156 10.584 14.2942 10.2222 15.3796 10.2222C16.4649 10.2222 17.3333 11.0907 17.3333 13.0436V16.4444Z" fill="black"/>
</svg>
