<svg preserveAspectRatio="none" overflow="visible" style="display: block;" width="126.535" height="151.736" viewBox="0 0 126.535 151.736" fill="none" xmlns="http://www.w3.org/2000/svg">
<path id="Vector 5" d="M21.8819 148.85L16.8819 145.963V151.736L21.8819 148.85ZM126.535 2.88675L123.648 0L120.762 2.88675L123.648 5.7735L126.535 2.88675ZM4.5 2.88675V3.38675H123.648V2.88675V2.38675H4.5V2.88675ZM17.3819 148.85V148.35H4.50302V148.85V149.35H17.3819V148.85ZM0.503016 144.85L1.00302 144.85L1 6.88683L0.5 6.88684L0 6.88685L0.00301611 144.85H0.503016ZM4.50302 148.85V148.35C2.57005 148.35 1.00306 146.783 1.00302 144.85L0.503016 144.85H0.00301611C0.00307044 147.335 2.01778 149.35 4.50302 149.35V148.85ZM4.5 2.88675V2.38675C2.01468 2.38675 -5.43296e-05 4.40153 0 6.88685L0.5 6.88684L1 6.88683C0.999958 4.9538 2.56697 3.38675 4.5 3.38675V2.88675Z" fill="#C2C2C2"/>
</svg>
