<svg preserveAspectRatio="none" overflow="visible" style="display: block;" width="161.686" height="144.237" viewBox="0 0 161.686 144.237" fill="none" xmlns="http://www.w3.org/2000/svg">
<path id="Vector 3" d="M59.9157 141.35L54.9157 138.463V144.237L59.9157 141.35ZM161.686 2.88675L158.8 0L155.913 2.88675L158.8 5.7735L161.686 2.88675ZM4.50234 2.88675V3.38675H158.8V2.88675V2.38675H4.50234V2.88675ZM55.4157 141.35V140.85H4.5V141.35V141.85H55.4157V141.35ZM0.5 137.35L1 137.35L1.00234 6.88668L0.502343 6.88667L0.00234285 6.88666L0 137.35H0.5ZM4.5 141.35V140.85C2.56698 140.85 0.999965 139.283 1 137.35L0.5 137.35H0C-4.46141e-05 139.835 2.01469 141.85 4.5 141.85V141.35ZM4.50234 2.88675V2.38675C2.01709 2.38675 0.00238749 4.40141 0.00234285 6.88666L0.502343 6.88667L1.00234 6.88668C1.00238 4.95371 2.56937 3.38675 4.50234 3.38675V2.88675Z" fill="#C2C2C2"/>
</svg>
