<svg xmlns="http://www.w3.org/2000/svg" width="54.887" height="237.918" fill="none" overflow="visible" preserveAspectRatio="none" style="display:block" viewBox="0 0 54.887 237.918"><path fill="#000" fill-opacity=".24" d="m0 235.031 2.887 2.887 2.887-2.887-2.887-2.886zM54.887 2.887l-5-2.887v5.774zm-52 232.144v.5h17.639v-1H2.887zm21.635-4h.5V6.887h-1V231.03zm4-228.144v.5h21.865v-1H28.522zm-4 4h.5a3.5 3.5 0 0 1 3.5-3.5v-1a4.5 4.5 0 0 0-4.5 4.5zM20.527 235.03v.5a4.496 4.496 0 0 0 4.495-4.5h-1c0 1.934-1.563 3.5-3.495 3.5z"/></svg>