<svg preserveAspectRatio="none" overflow="visible" style="display: block;" width="79.3871" height="135.273" viewBox="0 0 79.3871 135.273" fill="none" xmlns="http://www.w3.org/2000/svg">
<g transform="translate(0 135.273) scale(1 -1)">
<path id="Vector 4" d="M0 2.88668L2.88668 5.7735L5.7735 2.88683L2.88683 0L0 2.88668ZM12.2253 2.887L12.2253 3.387H12.2253V2.887ZM79.3871 132.387L74.3871 129.5V135.274L79.3871 132.387ZM48.8332 128.387H49.3332H48.8332ZM48.8329 6.88699L48.3329 6.88699L48.8329 6.88699ZM2.88675 2.88675L2.88674 3.38675L12.2253 3.387L12.2253 2.887L12.2253 2.387L2.88676 2.38675L2.88675 2.88675ZM12.2253 2.887V3.387H44.8329V2.887V2.387H12.2253V2.887ZM48.8329 6.88699L48.3329 6.88699L48.3332 128.387H48.8332H49.3332L49.3329 6.88698L48.8329 6.88699ZM52.8332 132.387V132.887H74.8871V132.387V131.887H52.8332V132.387ZM48.8332 128.387H48.3332C48.3332 130.872 50.3479 132.887 52.8332 132.887V132.387V131.887C50.9002 131.887 49.3332 130.32 49.3332 128.387H48.8332ZM44.8329 2.887V3.387C46.7659 3.387 48.3329 4.95399 48.3329 6.88699L48.8329 6.88699L49.3329 6.88698C49.3329 4.40171 47.3182 2.387 44.8329 2.387V2.887Z" fill="black" fill-opacity="0.24"/>
</g>
</svg>
